<svg id="favicon" xmlns="http://www.w3.org/2000/svg" width="40" height="40" viewBox="0 0 40 40"> <g id="favicon-2" data-name="favicon"> <path id="left" d="M10.217,40,27.29,35.5H5.308c-.47,0-.843-.5-.843-1.123h0V15.453l8.682,18.925H17.6V5.62c0-.62.377-1.123.847-1.123H28.98L20.713,0H16.547c-1.88,0-3.388,2.013-3.388,4.5h0V24.583L4.46,5.62H0V35.5C0,37.983,1.513,40,3.382,40Z" fill="#090806"/> <g id="right"> <path id="Path_38856" data-name="Path 38856" d="M17.453,20.6l-2.183,3.32v8.217h-4.2V3.374h4.2V16.407l1.86-3.578,5.2-9.46H27.5L20.25,16.149,27.7,32.131h-5L17.463,20.6" transform="translate(7.38 2.246)" fill="#fcc23b"/> <path id="Path_38857" data-name="Path 38857" d="M32.53,0h-15.9L24.89,4.5h5.748a1.012,1.012,0,0,1,.85,1.122V34.388a1.018,1.018,0,0,1-.843,1.123H23.2L6.13,40h26.4c1.87,0,3.383-2.017,3.383-4.5V4.5C35.913,2.013,34.4,0,32.53,0Z" transform="translate(4.087)" fill="#fcc23b"/> </g> </g> </svg>
