<svg xmlns="http://www.w3.org/2000/svg" xmlns:xlink="http://www.w3.org/1999/xlink" width="40" height="40.001" viewBox="0 0 40 40.001"> <defs> <linearGradient id="linear-gradient" y1="0.5" x2="1" y2="0.5" gradientUnits="objectBoundingBox"> <stop offset="0" stop-color="#e6c637"/> <stop offset="1" stop-color="#4a4c5e"/> </linearGradient> </defs> <g id="favicon" transform="translate(0 0)"> <path id="favicon-solid" d="M-326.618,745c-1.868,0-3.382-2.017-3.382-4.5V710.62h4.46l8.7,18.963V709.5c0-2.487,1.508-4.5,3.388-4.5h20.069c1.87,0,3.383,2.013,3.383,4.5v31c0,2.484-1.513,4.5-3.383,4.5Zm1.083-5.623c0,.623.374,1.123.843,1.123l29.424.011a1.018,1.018,0,0,0,.843-1.123V710.621a1.012,1.012,0,0,0-.85-1.121h-5.748l0,0h-10.524c-.471,0-.847.5-.847,1.123v28.758h-4.453l-8.682-18.924Zm13.985.006V710.619h4.2v13.034l1.859-3.578,5.2-9.46h5.167l-7.247,12.78,7.453,15.981h-5l-5.24-11.534-.01,0-2.183,3.32v8.217Z" transform="translate(330 -705)" fill="url(#linear-gradient)"/> </g> </svg>
