<svg xmlns="http://www.w3.org/2000/svg" xmlns:xlink="http://www.w3.org/1999/xlink" width="137" height="41" viewBox="0 0 137 41"> <defs> <linearGradient id="linear-gradient" x1="0.779" y1="0.784" x2="-0.384" y2="-0.151" gradientUnits="objectBoundingBox"> <stop offset="0" stop-color="#fcc23b"/> <stop offset="0.544" stop-color="#b5a877"/> <stop offset="1" stop-color="#f9e040"/> </linearGradient> </defs> <g id="logo" transform="translate(0.5 0.5)"> <path id="logo-solid" d="M1293.086,418H1226.4a4.45,4.45,0,0,1-4.4-4.495V383.619h5.8l11.312,18.964V382.5a4.45,4.45,0,0,1,4.4-4.5H1353.6a4.45,4.45,0,0,1,4.4,4.5v31.009a4.45,4.45,0,0,1-4.4,4.495Zm59.415-4.495a1.113,1.113,0,0,0,1.1-1.125V383.619a1.111,1.111,0,0,0-1.1-1.123H1246a1.113,1.113,0,0,0-1.1,1.123V412.38h-5.8L1227.8,393.456V412.38a1.114,1.114,0,0,0,1.1,1.125Zm-18.119-1.125V383.618h5.8v24H1352.5v4.76Zm-19.974,0V383.618h18.835v4.8h-13.035v6.853h11.138v4.643h-11.138v7.7h13.071v4.76Zm-8,0-7.233-11.536-3.017,3.32v8.216h-5.8V383.618h5.8v13.038l2.552-3.575,7.174-9.464h7.137l-10,12.782,10.284,15.98Zm-32.292,0V401.952l-9.243-18.334h6.362l5.821,12.959,5.857-12.959h6.343l-9.242,18.334V412.38Zm-7.894,0-1.952-5.926H1254.1l-1.934,5.926H1246l10.48-28.761h5.375l10.539,28.761Zm-10.558-10.725h7.04l-3.539-10.768Z" transform="translate(-1222 -378)" stroke="rgba(0,0,0,0)" stroke-width="1" fill="url(#linear-gradient)"/> </g> </svg>
