<svg xmlns="http://www.w3.org/2000/svg" viewBox="0 0 40 40"> <g id="nbw" transform="translate(-119 -234.998)"> <path id="Path_40277" data-name="Path 40277" d="M205.56,100.244l-20-10v-20l20-10,20,10v20Z" transform="translate(-66.56 174.754)" fill="#252425"/> <g id="Group_174684" data-name="Group 174684" transform="translate(124.715 240.716)"> <path id="Path_40278" data-name="Path 40278" d="M4.548,21.632l2.6-14.707a5.6,5.6,0,0,0-.442-3h6.2L19,15.286l1.5-8.36a5.9,5.9,0,0,0-.41-3h5.393a6.97,6.97,0,0,0-1.465,3L21.413,21.632a5.247,5.247,0,0,0,.442,3H17.31L9.977,10.552,8.035,21.632a5.243,5.243,0,0,0,.433,3H3.083a7.5,7.5,0,0,0,1.465-3ZM4.183,4.184A14.282,14.282,0,0,1,23.35,3.246H21.5a13.88,13.88,0,0,0-2.1-1.115,13.282,13.282,0,0,0-10.258,0A14.178,14.178,0,0,0,7.05,3.246a1.27,1.27,0,0,0-.707.108.65.65,0,0,0-.31.637,14.205,14.205,0,0,0-1.085.968A13.167,13.167,0,0,0,3.7,22.151l-.032.1-.542.953A14.28,14.28,0,0,1,4.183,4.184c4.112-4.11-2.683,2.675,0,0C8.295.074,1.5,6.859,4.183,4.184Zm23.262,4.54a14.267,14.267,0,0,1-3.06,15.652,13.938,13.938,0,0,1-4.54,3.06,14.227,14.227,0,0,1-11.118,0,13.875,13.875,0,0,1-3.518-2.123h1.85A13.524,13.524,0,0,0,9.15,26.427a13.222,13.222,0,0,0,12.358-1.115,1.243,1.243,0,0,0,.728-.125.687.687,0,0,0,.287-.62A12.63,12.63,0,0,0,23.6,23.6a13.218,13.218,0,0,0,2.833-14.45,12.94,12.94,0,0,0-1.58-2.758l.032-.093.078-.2.078-.187.085-.178.248-.465A14.275,14.275,0,0,1,27.45,8.719Z" transform="translate(0 0.001)" fill="#f9e24f"/> </g> </g> </svg>
